<svg xmlns="http://www.w3.org/2000/svg" width="878" height="1084" viewBox="0 0 878 1084">
<style>
text { font-family: system-ui, -apple-system, 'Helvetica Neue', Arial, sans-serif; font-size: 13px; fill: #0b0b0b; font-variant-numeric: tabular-nums; }
.secondary { fill: #52514e; } .muted { fill: #898781; }
.title { font-size: 18px; font-weight: 600; }
.heading { font-size: 15px; font-weight: 600; } .strong { font-weight: 600; }
.surface { fill: #fcfcfb; } .grid { stroke: #e1e0d9; } .base { stroke: #c3c2b7; }
.good { fill: #0ca30c; } line.good { stroke: #0ca30c; }
.bad { fill: #d03b3b; } line.bad { stroke: #d03b3b; }
.neutral { fill: #898781; } line.neutral { stroke: #898781; }
.good-text { fill: #006300; } .bad-text { fill: #b02a2a; } .neutral-text { fill: #52514e; }
.tint { stroke: none; fill-opacity: 0.16; }
circle { stroke: #fcfcfb; stroke-width: 2px; }
@media (prefers-color-scheme: dark) {
text { fill: #ffffff; } .secondary, .neutral-text { fill: #c3c2b7; }
.good-text { fill: #0ca30c; } .bad-text { fill: #e06464; }
.surface { fill: #1a1a19; } .grid { stroke: #2c2c2a; } .base { stroke: #383835; }
.tint { fill-opacity: 0.28; } circle { stroke: #1a1a19; }
}
</style>
<rect class="surface" width="878" height="1084"/>
<text class="title" x="24" y="40">ds41-patch-20261003 compared with ds41-write-edit-20261003</text>
<text class="secondary" x="24" y="62">openrouter:deepseek/deepseek-v4.1-flash. Passed: ds41-write-edit-20261003 80/80, <tspan class="neutral-text strong">ds41-patch-20261003 80/80</tspan>.</text>
<text class="heading" x="24" y="106">Across all tasks</text>
<text class="secondary" x="24" y="124">Each dot is the geometric mean over tasks of the candidate's median over the base's median, with a 90% bootstrap interval.</text>
<text class="secondary" x="24" y="142">Green is clearly lower, red is clearly higher, and gray is within the noise.</text>
<line class="grid" x1="230.1" y1="158" x2="230.1" y2="308"/><text class="muted" x="230.1" y="322" text-anchor="middle">-20%</text>
<line class="grid" x1="306.1" y1="158" x2="306.1" y2="308"/><text class="muted" x="306.1" y="322" text-anchor="middle">-10%</text>
<line class="base" x1="374.0" y1="158" x2="374.0" y2="308"/><text class="muted" x="374.0" y="322" text-anchor="middle">0%</text>
<line class="grid" x1="435.5" y1="158" x2="435.5" y2="308"/><text class="muted" x="435.5" y="322" text-anchor="middle">+10%</text>
<line class="grid" x1="517.9" y1="158" x2="517.9" y2="308"/><text class="muted" x="517.9" y="322" text-anchor="middle">+25%</text>
<text class="muted" x="194" y="340">← lower</text><text class="muted" x="554" y="340" text-anchor="end">higher →</text>
<g><title>Cost: -4% (-12% to +4%)</title><rect x="24" y="158.0" width="830" height="30" fill="transparent"/><text class="strong" x="24" y="177.0">Cost</text><line class="neutral" x1="290.2" y1="173.0" x2="398.1" y2="173.0" stroke-width="2" stroke-linecap="round"/><circle class="neutral" cx="348.9" cy="173.0" r="6"/><text x="578" y="177.0">-4% (-12% to +4%)</text><text class="neutral-text strong" x="734" y="177.0">No clear change</text></g>
<g><title>Time: -9% (-16% to -1%)</title><rect x="24" y="188.0" width="830" height="30" fill="transparent"/><text class="strong" x="24" y="207.0">Time</text><line class="good" x1="259.4" y1="203.0" x2="365.8" y2="203.0" stroke-width="2" stroke-linecap="round"/><circle class="good" cx="314.6" cy="203.0" r="6"/><text x="578" y="207.0">-9% (-16% to -1%)</text><text class="good-text strong" x="734" y="207.0">Lower</text></g>
<g><title>Input tokens: -11% (-22% to -1%)</title><rect x="24" y="218.0" width="830" height="30" fill="transparent"/><text class="strong" x="24" y="237.0">Input tokens</text><line class="good" x1="210.4" y1="233.0" x2="365.3" y2="233.0" stroke-width="2" stroke-linecap="round"/><circle class="good" cx="298.6" cy="233.0" r="6"/><text x="578" y="237.0">-11% (-22% to -1%)</text><text class="good-text strong" x="734" y="237.0">Lower</text></g>
<g><title>Output tokens: -2% (-11% to +6%)</title><rect x="24" y="248.0" width="830" height="30" fill="transparent"/><text class="strong" x="24" y="267.0">Output tokens</text><line class="neutral" x1="297.2" y1="263.0" x2="412.5" y2="263.0" stroke-width="2" stroke-linecap="round"/><circle class="neutral" cx="362.8" cy="263.0" r="6"/><text x="578" y="267.0">-2% (-11% to +6%)</text><text class="neutral-text strong" x="734" y="267.0">No clear change</text></g>
<g><title>Requests: -13% (-21% to -7%)</title><rect x="24" y="278.0" width="830" height="30" fill="transparent"/><text class="strong" x="24" y="297.0">Requests</text><line class="good" x1="222.2" y1="293.0" x2="327.3" y2="293.0" stroke-width="2" stroke-linecap="round"/><circle class="good" cx="284.9" cy="293.0" r="6"/><text x="578" y="297.0">-13% (-21% to -7%)</text><text class="good-text strong" x="734" y="297.0">Lower</text></g>
<text class="heading" x="24" y="380">By task</text>
<text class="secondary" x="24" y="398">Each cell is the change in the task's median. A cell is colored only when every repetition of the candidate was lower (green)</text>
<text class="secondary" x="24" y="416">or higher (red) than every repetition of the base; hover a cell for the values.</text>
<text class="strong" x="292" y="450" text-anchor="end">Passed</text>
<text class="strong" x="402" y="450" text-anchor="end">Cost</text>
<text class="strong" x="512" y="450" text-anchor="end">Time</text>
<text class="strong" x="622" y="450" text-anchor="end">Input tokens</text>
<text class="strong" x="732" y="450" text-anchor="end">Output tokens</text>
<text class="strong" x="842" y="450" text-anchor="end">Requests</text>
<line class="grid" x1="24" y1="460" x2="854" y2="460"/><text x="24" y="479">coffee-site</text>
<g><title>coffee-site, passed: ds41-write-edit-20261003 4/4; ds41-patch-20261003 4/4</title><rect x="194" y="460" width="110" height="30" fill="transparent"/><text class="muted" x="292" y="479" text-anchor="end">4/4</text></g>
<g><title>coffee-site, cost: ds41-write-edit-20261003 $0.0021, $0.0024, $0.0025, $0.0039; ds41-patch-20261003 $0.0025, $0.0032, $0.0032, $0.0039</title><rect x="304" y="460" width="110" height="30" fill="transparent"/><text class="muted" x="402" y="479" text-anchor="end">+31%</text></g>
<g><title>coffee-site, time: ds41-write-edit-20261003 17, 18, 20, 27; ds41-patch-20261003 18, 22, 22, 25</title><rect x="414" y="460" width="110" height="30" fill="transparent"/><text class="muted" x="512" y="479" text-anchor="end">+16%</text></g>
<g><title>coffee-site, input tokens: ds41-write-edit-20261003 25842, 30589, 39485, 50661; ds41-patch-20261003 36036, 41837, 47867, 53330</title><rect x="524" y="460" width="110" height="30" fill="transparent"/><text class="muted" x="622" y="479" text-anchor="end">+28%</text></g>
<g><title>coffee-site, output tokens: ds41-write-edit-20261003 2875, 2909, 3672, 5796; ds41-patch-20261003 3648, 4508, 4620, 5823</title><rect x="634" y="460" width="110" height="30" fill="transparent"/><text class="muted" x="732" y="479" text-anchor="end">+39%</text></g>
<g><title>coffee-site, requests: ds41-write-edit-20261003 5, 7, 8, 9; ds41-patch-20261003 7, 7, 8, 8</title><rect x="744" y="460" width="110" height="30" fill="transparent"/><text class="muted" x="842" y="479" text-anchor="end">0%</text></g>
<line class="grid" x1="24" y1="490" x2="854" y2="490"/><text x="24" y="509">csv-stats</text>
<g><title>csv-stats, passed: ds41-write-edit-20261003 4/4; ds41-patch-20261003 4/4</title><rect x="194" y="490" width="110" height="30" fill="transparent"/><text class="muted" x="292" y="509" text-anchor="end">4/4</text></g>
<g><title>csv-stats, cost: ds41-write-edit-20261003 $0.0068, $0.0069, $0.0070, $0.0098; ds41-patch-20261003 $0.0039, $0.0057, $0.0060, $0.0061</title><rect x="304" y="490" width="110" height="30" fill="transparent"/><rect class="good tint" x="308" y="493" width="102" height="24" rx="4"/><text class="strong" x="402" y="509" text-anchor="end">-16%</text></g>
<g><title>csv-stats, time: ds41-write-edit-20261003 50, 51, 51, 72; ds41-patch-20261003 28, 41, 42, 42</title><rect x="414" y="490" width="110" height="30" fill="transparent"/><rect class="good tint" x="418" y="493" width="102" height="24" rx="4"/><text class="strong" x="512" y="509" text-anchor="end">-19%</text></g>
<g><title>csv-stats, input tokens: ds41-write-edit-20261003 79864, 80598, 81988, 118841; ds41-patch-20261003 31243, 50804, 61536, 67053</title><rect x="524" y="490" width="110" height="30" fill="transparent"/><rect class="good tint" x="528" y="493" width="102" height="24" rx="4"/><text class="strong" x="622" y="509" text-anchor="end">-31%</text></g>
<g><title>csv-stats, output tokens: ds41-write-edit-20261003 10412, 10641, 10710, 14533; ds41-patch-20261003 5909, 8817, 9210, 9317</title><rect x="634" y="490" width="110" height="30" fill="transparent"/><rect class="good tint" x="638" y="493" width="102" height="24" rx="4"/><text class="strong" x="732" y="509" text-anchor="end">-16%</text></g>
<g><title>csv-stats, requests: ds41-write-edit-20261003 8, 9, 9, 9; ds41-patch-20261003 5, 6, 7, 8</title><rect x="744" y="490" width="110" height="30" fill="transparent"/><text class="muted" x="842" y="509" text-anchor="end">-28%</text></g>
<line class="grid" x1="24" y1="520" x2="854" y2="520"/><text x="24" y="539">deploy-heredocs</text>
<g><title>deploy-heredocs, passed: ds41-write-edit-20261003 4/4; ds41-patch-20261003 4/4</title><rect x="194" y="520" width="110" height="30" fill="transparent"/><text class="muted" x="292" y="539" text-anchor="end">4/4</text></g>
<g><title>deploy-heredocs, cost: ds41-write-edit-20261003 $0.0019, $0.0024, $0.0029, $0.0030; ds41-patch-20261003 $0.0020, $0.0021, $0.0024, $0.0029</title><rect x="304" y="520" width="110" height="30" fill="transparent"/><text class="muted" x="402" y="539" text-anchor="end">-16%</text></g>
<g><title>deploy-heredocs, time: ds41-write-edit-20261003 13, 16, 22, 23; ds41-patch-20261003 11, 14, 16, 24</title><rect x="414" y="520" width="110" height="30" fill="transparent"/><text class="muted" x="512" y="539" text-anchor="end">-22%</text></g>
<g><title>deploy-heredocs, input tokens: ds41-write-edit-20261003 31561, 41090, 58982, 72009; ds41-patch-20261003 29326, 31831, 34103, 63170</title><rect x="524" y="520" width="110" height="30" fill="transparent"/><text class="muted" x="622" y="539" text-anchor="end">-34%</text></g>
<g><title>deploy-heredocs, output tokens: ds41-write-edit-20261003 2052, 2582, 3056, 3590; ds41-patch-20261003 1817, 2320, 2812, 3354</title><rect x="634" y="520" width="110" height="30" fill="transparent"/><text class="muted" x="732" y="539" text-anchor="end">-9%</text></g>
<g><title>deploy-heredocs, requests: ds41-write-edit-20261003 6, 7, 10, 13; ds41-patch-20261003 5, 6, 6, 10</title><rect x="744" y="520" width="110" height="30" fill="transparent"/><text class="muted" x="842" y="539" text-anchor="end">-29%</text></g>
<line class="grid" x1="24" y1="550" x2="854" y2="550"/><text x="24" y="569">inih-quoted</text>
<g><title>inih-quoted, passed: ds41-write-edit-20261003 4/4; ds41-patch-20261003 4/4</title><rect x="194" y="550" width="110" height="30" fill="transparent"/><text class="muted" x="292" y="569" text-anchor="end">4/4</text></g>
<g><title>inih-quoted, cost: ds41-write-edit-20261003 $0.0283, $0.0307, $0.0511, $0.0525; ds41-patch-20261003 $0.0198, $0.0258, $0.0355, $0.0503</title><rect x="304" y="550" width="110" height="30" fill="transparent"/><text class="muted" x="402" y="569" text-anchor="end">-25%</text></g>
<g><title>inih-quoted, time: ds41-write-edit-20261003 199, 221, 373, 517; ds41-patch-20261003 138, 180, 254, 369</title><rect x="414" y="550" width="110" height="30" fill="transparent"/><text class="muted" x="512" y="569" text-anchor="end">-27%</text></g>
<g><title>inih-quoted, input tokens: ds41-write-edit-20261003 1289523, 1306116, 2318343, 2789201; ds41-patch-20261003 957629, 988873, 1746015, 2183751</title><rect x="524" y="550" width="110" height="30" fill="transparent"/><text class="muted" x="622" y="569" text-anchor="end">-25%</text></g>
<g><title>inih-quoted, output tokens: ds41-write-edit-20261003 32561, 37123, 61228, 66037; ds41-patch-20261003 20685, 31638, 41860, 63295</title><rect x="634" y="550" width="110" height="30" fill="transparent"/><text class="muted" x="732" y="569" text-anchor="end">-25%</text></g>
<g><title>inih-quoted, requests: ds41-write-edit-20261003 35, 38, 42, 49; ds41-patch-20261003 28, 32, 39, 39</title><rect x="744" y="550" width="110" height="30" fill="transparent"/><text class="muted" x="842" y="569" text-anchor="end">-11%</text></g>
<line class="grid" x1="24" y1="580" x2="854" y2="580"/><text x="24" y="599">itoa-boundaries</text>
<g><title>itoa-boundaries, passed: ds41-write-edit-20261003 4/4; ds41-patch-20261003 4/4</title><rect x="194" y="580" width="110" height="30" fill="transparent"/><text class="muted" x="292" y="599" text-anchor="end">4/4</text></g>
<g><title>itoa-boundaries, cost: ds41-write-edit-20261003 $0.0040, $0.0100, $0.0137, $0.0171; ds41-patch-20261003 $0.0040, $0.0060, $0.0087, $0.0095</title><rect x="304" y="580" width="110" height="30" fill="transparent"/><text class="muted" x="402" y="599" text-anchor="end">-38%</text></g>
<g><title>itoa-boundaries, time: ds41-write-edit-20261003 40, 78, 137, 143; ds41-patch-20261003 31, 51, 61, 68</title><rect x="414" y="580" width="110" height="30" fill="transparent"/><text class="muted" x="512" y="599" text-anchor="end">-48%</text></g>
<g><title>itoa-boundaries, input tokens: ds41-write-edit-20261003 77632, 197118, 378166, 474828; ds41-patch-20261003 66656, 124026, 203758, 225389</title><rect x="524" y="580" width="110" height="30" fill="transparent"/><text class="muted" x="622" y="599" text-anchor="end">-43%</text></g>
<g><title>itoa-boundaries, output tokens: ds41-write-edit-20261003 3966, 12925, 17423, 22098; ds41-patch-20261003 4055, 6757, 10411, 11500</title><rect x="634" y="580" width="110" height="30" fill="transparent"/><text class="muted" x="732" y="599" text-anchor="end">-43%</text></g>
<g><title>itoa-boundaries, requests: ds41-write-edit-20261003 8, 13, 20, 22; ds41-patch-20261003 7, 10, 13, 14</title><rect x="744" y="580" width="110" height="30" fill="transparent"/><text class="muted" x="842" y="599" text-anchor="end">-30%</text></g>
<line class="grid" x1="24" y1="610" x2="854" y2="610"/><text x="24" y="629">jsmn-rename</text>
<g><title>jsmn-rename, passed: ds41-write-edit-20261003 4/4; ds41-patch-20261003 4/4</title><rect x="194" y="610" width="110" height="30" fill="transparent"/><text class="muted" x="292" y="629" text-anchor="end">4/4</text></g>
<g><title>jsmn-rename, cost: ds41-write-edit-20261003 $0.0014, $0.0022, $0.0023, $0.0024; ds41-patch-20261003 $0.0014, $0.0019, $0.0023, $0.0026</title><rect x="304" y="610" width="110" height="30" fill="transparent"/><text class="muted" x="402" y="629" text-anchor="end">-7%</text></g>
<g><title>jsmn-rename, time: ds41-write-edit-20261003 14, 18, 18, 19; ds41-patch-20261003 12, 16, 16, 17</title><rect x="414" y="610" width="110" height="30" fill="transparent"/><text class="muted" x="512" y="629" text-anchor="end">-13%</text></g>
<g><title>jsmn-rename, input tokens: ds41-write-edit-20261003 31826, 46037, 62142, 73137; ds41-patch-20261003 28587, 40817, 52309, 61251</title><rect x="524" y="610" width="110" height="30" fill="transparent"/><text class="muted" x="622" y="629" text-anchor="end">-14%</text></g>
<g><title>jsmn-rename, output tokens: ds41-write-edit-20261003 1349, 1852, 2137, 2194; ds41-patch-20261003 1371, 1918, 2022, 2483</title><rect x="634" y="610" width="110" height="30" fill="transparent"/><text class="muted" x="732" y="629" text-anchor="end">-1%</text></g>
<g><title>jsmn-rename, requests: ds41-write-edit-20261003 7, 8, 10, 10; ds41-patch-20261003 6, 7, 7, 9</title><rect x="744" y="610" width="110" height="30" fill="transparent"/><text class="muted" x="842" y="629" text-anchor="end">-22%</text></g>
<line class="grid" x1="24" y1="640" x2="854" y2="640"/><text x="24" y="659">ledger-scattered</text>
<g><title>ledger-scattered, passed: ds41-write-edit-20261003 4/4; ds41-patch-20261003 4/4</title><rect x="194" y="640" width="110" height="30" fill="transparent"/><text class="muted" x="292" y="659" text-anchor="end">4/4</text></g>
<g><title>ledger-scattered, cost: ds41-write-edit-20261003 $0.0102, $0.0105, $0.0107, $0.0127; ds41-patch-20261003 $0.0097, $0.0113, $0.0114, $0.0122</title><rect x="304" y="640" width="110" height="30" fill="transparent"/><text class="muted" x="402" y="659" text-anchor="end">+7%</text></g>
<g><title>ledger-scattered, time: ds41-write-edit-20261003 39, 51, 60, 76; ds41-patch-20261003 44, 51, 54, 55</title><rect x="414" y="640" width="110" height="30" fill="transparent"/><text class="muted" x="512" y="659" text-anchor="end">-4%</text></g>
<g><title>ledger-scattered, input tokens: ds41-write-edit-20261003 305796, 324774, 392645, 896618; ds41-patch-20261003 228521, 350936, 376754, 419054</title><rect x="524" y="640" width="110" height="30" fill="transparent"/><text class="muted" x="622" y="659" text-anchor="end">+1%</text></g>
<g><title>ledger-scattered, output tokens: ds41-write-edit-20261003 8395, 9740, 9807, 11085; ds41-patch-20261003 7401, 9570, 9645, 10240</title><rect x="634" y="640" width="110" height="30" fill="transparent"/><text class="muted" x="732" y="659" text-anchor="end">-2%</text></g>
<g><title>ledger-scattered, requests: ds41-write-edit-20261003 12, 14, 22, 36; ds41-patch-20261003 14, 15, 17, 18</title><rect x="744" y="640" width="110" height="30" fill="transparent"/><text class="muted" x="842" y="659" text-anchor="end">-11%</text></g>
<line class="grid" x1="24" y1="670" x2="854" y2="670"/><text x="24" y="689">ledger-split</text>
<g><title>ledger-split, passed: ds41-write-edit-20261003 4/4; ds41-patch-20261003 4/4</title><rect x="194" y="670" width="110" height="30" fill="transparent"/><text class="muted" x="292" y="689" text-anchor="end">4/4</text></g>
<g><title>ledger-split, cost: ds41-write-edit-20261003 $0.0052, $0.0058, $0.0067, $0.0081; ds41-patch-20261003 $0.0057, $0.0074, $0.0078, $0.0080</title><rect x="304" y="670" width="110" height="30" fill="transparent"/><text class="muted" x="402" y="689" text-anchor="end">+21%</text></g>
<g><title>ledger-split, time: ds41-write-edit-20261003 30, 31, 39, 47; ds41-patch-20261003 29, 40, 46, 50</title><rect x="414" y="670" width="110" height="30" fill="transparent"/><text class="muted" x="512" y="689" text-anchor="end">+23%</text></g>
<g><title>ledger-split, input tokens: ds41-write-edit-20261003 161471, 170510, 182110, 279283; ds41-patch-20261003 144079, 171492, 279845, 324013</title><rect x="524" y="670" width="110" height="30" fill="transparent"/><text class="muted" x="622" y="689" text-anchor="end">+28%</text></g>
<g><title>ledger-split, output tokens: ds41-write-edit-20261003 4072, 4970, 5216, 8658; ds41-patch-20261003 5016, 6003, 6931, 9154</title><rect x="634" y="670" width="110" height="30" fill="transparent"/><text class="muted" x="732" y="689" text-anchor="end">+27%</text></g>
<g><title>ledger-split, requests: ds41-write-edit-20261003 10, 11, 12, 16; ds41-patch-20261003 9, 12, 15, 17</title><rect x="744" y="670" width="110" height="30" fill="transparent"/><text class="muted" x="842" y="689" text-anchor="end">+17%</text></g>
<line class="grid" x1="24" y1="700" x2="854" y2="700"/><text x="24" y="719">locales-keys</text>
<g><title>locales-keys, passed: ds41-write-edit-20261003 4/4; ds41-patch-20261003 4/4</title><rect x="194" y="700" width="110" height="30" fill="transparent"/><text class="muted" x="292" y="719" text-anchor="end">4/4</text></g>
<g><title>locales-keys, cost: ds41-write-edit-20261003 $0.0038, $0.0040, $0.0059, $0.0059; ds41-patch-20261003 $0.0033, $0.0040, $0.0045, $0.0049</title><rect x="304" y="700" width="110" height="30" fill="transparent"/><text class="muted" x="402" y="719" text-anchor="end">-15%</text></g>
<g><title>locales-keys, time: ds41-write-edit-20261003 23, 23, 36, 36; ds41-patch-20261003 22, 23, 29, 30</title><rect x="414" y="700" width="110" height="30" fill="transparent"/><text class="muted" x="512" y="719" text-anchor="end">-12%</text></g>
<g><title>locales-keys, input tokens: ds41-write-edit-20261003 61924, 62717, 66744, 86292; ds41-patch-20261003 59383, 66643, 84768, 94212</title><rect x="524" y="700" width="110" height="30" fill="transparent"/><text class="muted" x="622" y="719" text-anchor="end">+17%</text></g>
<g><title>locales-keys, output tokens: ds41-write-edit-20261003 4031, 4157, 7267, 7436; ds41-patch-20261003 3454, 4130, 4961, 5458</title><rect x="634" y="700" width="110" height="30" fill="transparent"/><text class="muted" x="732" y="719" text-anchor="end">-20%</text></g>
<g><title>locales-keys, requests: ds41-write-edit-20261003 7, 7, 7, 10; ds41-patch-20261003 7, 7, 9, 9</title><rect x="744" y="700" width="110" height="30" fill="transparent"/><text class="muted" x="842" y="719" text-anchor="end">+14%</text></g>
<line class="grid" x1="24" y1="730" x2="854" y2="730"/><text x="24" y="749">mini-redis-del</text>
<g><title>mini-redis-del, passed: ds41-write-edit-20261003 4/4; ds41-patch-20261003 4/4</title><rect x="194" y="730" width="110" height="30" fill="transparent"/><text class="muted" x="292" y="749" text-anchor="end">4/4</text></g>
<g><title>mini-redis-del, cost: ds41-write-edit-20261003 $0.0181, $0.0204, $0.0219, $0.0249; ds41-patch-20261003 $0.0189, $0.0189, $0.0209, $0.0216</title><rect x="304" y="730" width="110" height="30" fill="transparent"/><text class="muted" x="402" y="749" text-anchor="end">-6%</text></g>
<g><title>mini-redis-del, time: ds41-write-edit-20261003 92, 123, 136, 139; ds41-patch-20261003 111, 126, 128, 129</title><rect x="414" y="730" width="110" height="30" fill="transparent"/><text class="muted" x="512" y="749" text-anchor="end">-2%</text></g>
<g><title>mini-redis-del, input tokens: ds41-write-edit-20261003 984253, 1338595, 1715867, 1757946; ds41-patch-20261003 1183998, 1206192, 1246540, 1405254</title><rect x="524" y="730" width="110" height="30" fill="transparent"/><text class="muted" x="622" y="749" text-anchor="end">-20%</text></g>
<g><title>mini-redis-del, output tokens: ds41-write-edit-20261003 14322, 15556, 16478, 22051; ds41-patch-20261003 15748, 16430, 17727, 18190</title><rect x="634" y="730" width="110" height="30" fill="transparent"/><text class="muted" x="732" y="749" text-anchor="end">+7%</text></g>
<g><title>mini-redis-del, requests: ds41-write-edit-20261003 23, 34, 39, 39; ds41-patch-20261003 26, 31, 31, 32</title><rect x="744" y="730" width="110" height="30" fill="transparent"/><text class="muted" x="842" y="749" text-anchor="end">-15%</text></g>
<line class="grid" x1="24" y1="760" x2="854" y2="760"/><text x="24" y="779">mini-redis-docs</text>
<g><title>mini-redis-docs, passed: ds41-write-edit-20261003 4/4; ds41-patch-20261003 4/4</title><rect x="194" y="760" width="110" height="30" fill="transparent"/><text class="muted" x="292" y="779" text-anchor="end">4/4</text></g>
<g><title>mini-redis-docs, cost: ds41-write-edit-20261003 $0.0262, $0.0266, $0.0336, $0.0373; ds41-patch-20261003 $0.0261, $0.0261, $0.0289, $0.0411</title><rect x="304" y="760" width="110" height="30" fill="transparent"/><text class="muted" x="402" y="779" text-anchor="end">-9%</text></g>
<g><title>mini-redis-docs, time: ds41-write-edit-20261003 140, 148, 194, 233; ds41-patch-20261003 151, 154, 160, 262</title><rect x="414" y="760" width="110" height="30" fill="transparent"/><text class="muted" x="512" y="779" text-anchor="end">-8%</text></g>
<g><title>mini-redis-docs, input tokens: ds41-write-edit-20261003 1791431, 2342034, 2383530, 5015248; ds41-patch-20261003 1526894, 1752059, 2463490, 3129902</title><rect x="524" y="760" width="110" height="30" fill="transparent"/><text class="muted" x="622" y="779" text-anchor="end">-11%</text></g>
<g><title>mini-redis-docs, output tokens: ds41-write-edit-20261003 16292, 20319, 21370, 28862; ds41-patch-20261003 19996, 20259, 20290, 35314</title><rect x="634" y="760" width="110" height="30" fill="transparent"/><text class="muted" x="732" y="779" text-anchor="end">-3%</text></g>
<g><title>mini-redis-docs, requests: ds41-write-edit-20261003 36, 41, 46, 96; ds41-patch-20261003 32, 40, 46, 47</title><rect x="744" y="760" width="110" height="30" fill="transparent"/><text class="muted" x="842" y="779" text-anchor="end">-1%</text></g>
<line class="grid" x1="24" y1="790" x2="854" y2="790"/><text x="24" y="809">pi-digit</text>
<g><title>pi-digit, passed: ds41-write-edit-20261003 4/4; ds41-patch-20261003 4/4</title><rect x="194" y="790" width="110" height="30" fill="transparent"/><text class="muted" x="292" y="809" text-anchor="end">4/4</text></g>
<g><title>pi-digit, cost: ds41-write-edit-20261003 $0.0061, $0.0063, $0.0070, $0.0088; ds41-patch-20261003 $0.0054, $0.0061, $0.0064, $0.0080</title><rect x="304" y="790" width="110" height="30" fill="transparent"/><text class="muted" x="402" y="809" text-anchor="end">-6%</text></g>
<g><title>pi-digit, time: ds41-write-edit-20261003 48, 50, 52, 65; ds41-patch-20261003 42, 46, 48, 56</title><rect x="414" y="790" width="110" height="30" fill="transparent"/><text class="muted" x="512" y="809" text-anchor="end">-9%</text></g>
<g><title>pi-digit, input tokens: ds41-write-edit-20261003 57945, 78268, 112732, 124644; ds41-patch-20261003 43630, 55116, 65229, 87724</title><rect x="524" y="790" width="110" height="30" fill="transparent"/><text class="muted" x="622" y="809" text-anchor="end">-37%</text></g>
<g><title>pi-digit, output tokens: ds41-write-edit-20261003 9330, 9878, 10301, 13077; ds41-patch-20261003 8538, 9520, 10116, 12401</title><rect x="634" y="790" width="110" height="30" fill="transparent"/><text class="muted" x="732" y="809" text-anchor="end">-3%</text></g>
<g><title>pi-digit, requests: ds41-write-edit-20261003 6, 10, 10, 11; ds41-patch-20261003 5, 6, 7, 7</title><rect x="744" y="790" width="110" height="30" fill="transparent"/><text class="muted" x="842" y="809" text-anchor="end">-35%</text></g>
<line class="grid" x1="24" y1="820" x2="854" y2="820"/><text x="24" y="839">routes-table</text>
<g><title>routes-table, passed: ds41-write-edit-20261003 4/4; ds41-patch-20261003 4/4</title><rect x="194" y="820" width="110" height="30" fill="transparent"/><text class="muted" x="292" y="839" text-anchor="end">4/4</text></g>
<g><title>routes-table, cost: ds41-write-edit-20261003 $0.0042, $0.0043, $0.0052, $0.0064; ds41-patch-20261003 $0.0034, $0.0037, $0.0049, $0.0051</title><rect x="304" y="820" width="110" height="30" fill="transparent"/><text class="muted" x="402" y="839" text-anchor="end">-9%</text></g>
<g><title>routes-table, time: ds41-write-edit-20261003 23, 28, 36, 38; ds41-patch-20261003 19, 19, 27, 28</title><rect x="414" y="820" width="110" height="30" fill="transparent"/><text class="muted" x="512" y="839" text-anchor="end">-28%</text></g>
<g><title>routes-table, input tokens: ds41-write-edit-20261003 44565, 102441, 115055, 218833; ds41-patch-20261003 59061, 61100, 77774, 81295</title><rect x="524" y="820" width="110" height="30" fill="transparent"/><text class="muted" x="622" y="839" text-anchor="end">-36%</text></g>
<g><title>routes-table, output tokens: ds41-write-edit-20261003 4304, 4836, 5005, 7967; ds41-patch-20261003 3443, 3871, 5703, 6119</title><rect x="634" y="820" width="110" height="30" fill="transparent"/><text class="muted" x="732" y="839" text-anchor="end">-3%</text></g>
<g><title>routes-table, requests: ds41-write-edit-20261003 5, 9, 12, 20; ds41-patch-20261003 6, 7, 7, 7</title><rect x="744" y="820" width="110" height="30" fill="transparent"/><text class="muted" x="842" y="839" text-anchor="end">-33%</text></g>
<line class="grid" x1="24" y1="850" x2="854" y2="850"/><text x="24" y="869">sds-startswith</text>
<g><title>sds-startswith, passed: ds41-write-edit-20261003 4/4; ds41-patch-20261003 4/4</title><rect x="194" y="850" width="110" height="30" fill="transparent"/><text class="muted" x="292" y="869" text-anchor="end">4/4</text></g>
<g><title>sds-startswith, cost: ds41-write-edit-20261003 $0.0026, $0.0036, $0.0039, $0.0053; ds41-patch-20261003 $0.0029, $0.0039, $0.0048, $0.0050</title><rect x="304" y="850" width="110" height="30" fill="transparent"/><text class="muted" x="402" y="869" text-anchor="end">+16%</text></g>
<g><title>sds-startswith, time: ds41-write-edit-20261003 20, 24, 25, 33; ds41-patch-20261003 26, 27, 31, 34</title><rect x="414" y="850" width="110" height="30" fill="transparent"/><text class="muted" x="512" y="869" text-anchor="end">+18%</text></g>
<g><title>sds-startswith, input tokens: ds41-write-edit-20261003 64844, 94224, 103654, 139749; ds41-patch-20261003 86256, 93784, 127546, 158326</title><rect x="524" y="850" width="110" height="30" fill="transparent"/><text class="muted" x="622" y="869" text-anchor="end">+12%</text></g>
<g><title>sds-startswith, output tokens: ds41-write-edit-20261003 2408, 3516, 3528, 5395; ds41-patch-20261003 2957, 4510, 4676, 5204</title><rect x="634" y="850" width="110" height="30" fill="transparent"/><text class="muted" x="732" y="869" text-anchor="end">+30%</text></g>
<g><title>sds-startswith, requests: ds41-write-edit-20261003 11, 11, 12, 13; ds41-patch-20261003 11, 12, 14, 16</title><rect x="744" y="850" width="110" height="30" fill="transparent"/><text class="muted" x="842" y="869" text-anchor="end">+13%</text></g>
<line class="grid" x1="24" y1="880" x2="854" y2="880"/><text x="24" y="899">shop-lf</text>
<g><title>shop-lf, passed: ds41-write-edit-20261003 4/4; ds41-patch-20261003 4/4</title><rect x="194" y="880" width="110" height="30" fill="transparent"/><text class="muted" x="292" y="899" text-anchor="end">4/4</text></g>
<g><title>shop-lf, cost: ds41-write-edit-20261003 $0.0026, $0.0027, $0.0030, $0.0031; ds41-patch-20261003 $0.0021, $0.0029, $0.0038, $0.0042</title><rect x="304" y="880" width="110" height="30" fill="transparent"/><text class="muted" x="402" y="899" text-anchor="end">+17%</text></g>
<g><title>shop-lf, time: ds41-write-edit-20261003 22, 23, 24, 26; ds41-patch-20261003 15, 21, 26, 28</title><rect x="414" y="880" width="110" height="30" fill="transparent"/><text class="muted" x="512" y="899" text-anchor="end">0%</text></g>
<g><title>shop-lf, input tokens: ds41-write-edit-20261003 48895, 49306, 61274, 61810; ds41-patch-20261003 22358, 43210, 52721, 63343</title><rect x="524" y="880" width="110" height="30" fill="transparent"/><text class="muted" x="622" y="899" text-anchor="end">-13%</text></g>
<g><title>shop-lf, output tokens: ds41-write-edit-20261003 3252, 3485, 3840, 3867; ds41-patch-20261003 2856, 3824, 5147, 5387</title><rect x="634" y="880" width="110" height="30" fill="transparent"/><text class="muted" x="732" y="899" text-anchor="end">+22%</text></g>
<g><title>shop-lf, requests: ds41-write-edit-20261003 10, 10, 11, 12; ds41-patch-20261003 5, 8, 8, 9</title><rect x="744" y="880" width="110" height="30" fill="transparent"/><rect class="good tint" x="748" y="883" width="102" height="24" rx="4"/><text class="strong" x="842" y="899" text-anchor="end">-24%</text></g>
<line class="grid" x1="24" y1="910" x2="854" y2="910"/><text x="24" y="929">temp-cli</text>
<g><title>temp-cli, passed: ds41-write-edit-20261003 4/4; ds41-patch-20261003 4/4</title><rect x="194" y="910" width="110" height="30" fill="transparent"/><text class="muted" x="292" y="929" text-anchor="end">4/4</text></g>
<g><title>temp-cli, cost: ds41-write-edit-20261003 $0.0021, $0.0027, $0.0030, $0.0040; ds41-patch-20261003 $0.0028, $0.0029, $0.0054, $0.0055</title><rect x="304" y="910" width="110" height="30" fill="transparent"/><text class="muted" x="402" y="929" text-anchor="end">+45%</text></g>
<g><title>temp-cli, time: ds41-write-edit-20261003 17, 21, 25, 30; ds41-patch-20261003 20, 22, 37, 39</title><rect x="414" y="910" width="110" height="30" fill="transparent"/><text class="muted" x="512" y="929" text-anchor="end">+27%</text></g>
<g><title>temp-cli, input tokens: ds41-write-edit-20261003 24329, 29563, 36904, 45058; ds41-patch-20261003 26601, 33702, 66155, 68755</title><rect x="524" y="910" width="110" height="30" fill="transparent"/><text class="muted" x="622" y="929" text-anchor="end">+50%</text></g>
<g><title>temp-cli, output tokens: ds41-write-edit-20261003 2921, 3985, 4312, 6071; ds41-patch-20261003 4208, 4321, 8119, 8266</title><rect x="634" y="910" width="110" height="30" fill="transparent"/><text class="muted" x="732" y="929" text-anchor="end">+50%</text></g>
<g><title>temp-cli, requests: ds41-write-edit-20261003 6, 6, 6, 9; ds41-patch-20261003 5, 6, 8, 9</title><rect x="744" y="910" width="110" height="30" fill="transparent"/><text class="muted" x="842" y="929" text-anchor="end">+17%</text></g>
<line class="grid" x1="24" y1="940" x2="854" y2="940"/><text x="24" y="959">tinyexpr-clamp</text>
<g><title>tinyexpr-clamp, passed: ds41-write-edit-20261003 4/4; ds41-patch-20261003 4/4</title><rect x="194" y="940" width="110" height="30" fill="transparent"/><text class="muted" x="292" y="959" text-anchor="end">4/4</text></g>
<g><title>tinyexpr-clamp, cost: ds41-write-edit-20261003 $0.0038, $0.0038, $0.0057, $0.0088; ds41-patch-20261003 $0.0038, $0.0053, $0.0062, $0.0081</title><rect x="304" y="940" width="110" height="30" fill="transparent"/><text class="muted" x="402" y="959" text-anchor="end">+20%</text></g>
<g><title>tinyexpr-clamp, time: ds41-write-edit-20261003 27, 28, 39, 48; ds41-patch-20261003 20, 39, 40, 44</title><rect x="414" y="940" width="110" height="30" fill="transparent"/><text class="muted" x="512" y="959" text-anchor="end">+16%</text></g>
<g><title>tinyexpr-clamp, input tokens: ds41-write-edit-20261003 94860, 140830, 199207, 402615; ds41-patch-20261003 89730, 230204, 255673, 330420</title><rect x="524" y="940" width="110" height="30" fill="transparent"/><text class="muted" x="622" y="959" text-anchor="end">+43%</text></g>
<g><title>tinyexpr-clamp, output tokens: ds41-write-edit-20261003 3020, 3962, 4922, 6911; ds41-patch-20261003 2872, 4188, 5620, 5713</title><rect x="634" y="940" width="110" height="30" fill="transparent"/><text class="muted" x="732" y="959" text-anchor="end">+10%</text></g>
<g><title>tinyexpr-clamp, requests: ds41-write-edit-20261003 11, 15, 16, 20; ds41-patch-20261003 8, 15, 19, 20</title><rect x="744" y="940" width="110" height="30" fill="transparent"/><text class="muted" x="842" y="959" text-anchor="end">+10%</text></g>
<line class="grid" x1="24" y1="970" x2="854" y2="970"/><text x="24" y="989">tinyexpr-precedence</text>
<g><title>tinyexpr-precedence, passed: ds41-write-edit-20261003 4/4; ds41-patch-20261003 4/4</title><rect x="194" y="970" width="110" height="30" fill="transparent"/><text class="muted" x="292" y="989" text-anchor="end">4/4</text></g>
<g><title>tinyexpr-precedence, cost: ds41-write-edit-20261003 $0.0383, $0.0538, $0.0549, $0.0595; ds41-patch-20261003 $0.0211, $0.0415, $0.0442, $0.0775</title><rect x="304" y="970" width="110" height="30" fill="transparent"/><text class="muted" x="402" y="989" text-anchor="end">-21%</text></g>
<g><title>tinyexpr-precedence, time: ds41-write-edit-20261003 243, 338, 364, 512; ds41-patch-20261003 130, 257, 279, 521</title><rect x="414" y="970" width="110" height="30" fill="transparent"/><text class="muted" x="512" y="989" text-anchor="end">-24%</text></g>
<g><title>tinyexpr-precedence, input tokens: ds41-write-edit-20261003 2110360, 2979339, 3429118, 3981166; ds41-patch-20261003 766055, 1794847, 1968659, 5548510</title><rect x="524" y="970" width="110" height="30" fill="transparent"/><text class="muted" x="622" y="989" text-anchor="end">-41%</text></g>
<g><title>tinyexpr-precedence, output tokens: ds41-write-edit-20261003 41232, 60352, 61250, 66793; ds41-patch-20261003 23836, 48482, 53658, 87194</title><rect x="634" y="970" width="110" height="30" fill="transparent"/><text class="muted" x="732" y="989" text-anchor="end">-16%</text></g>
<g><title>tinyexpr-precedence, requests: ds41-write-edit-20261003 42, 49, 56, 58; ds41-patch-20261003 22, 32, 40, 67</title><rect x="744" y="970" width="110" height="30" fill="transparent"/><text class="muted" x="842" y="989" text-anchor="end">-31%</text></g>
<line class="grid" x1="24" y1="1000" x2="854" y2="1000"/><text x="24" y="1019">todo-cli</text>
<g><title>todo-cli, passed: ds41-write-edit-20261003 4/4; ds41-patch-20261003 4/4</title><rect x="194" y="1000" width="110" height="30" fill="transparent"/><text class="muted" x="292" y="1019" text-anchor="end">4/4</text></g>
<g><title>todo-cli, cost: ds41-write-edit-20261003 $0.0033, $0.0033, $0.0033, $0.0036; ds41-patch-20261003 $0.0023, $0.0028, $0.0036, $0.0041</title><rect x="304" y="1000" width="110" height="30" fill="transparent"/><text class="muted" x="402" y="1019" text-anchor="end">-4%</text></g>
<g><title>todo-cli, time: ds41-write-edit-20261003 24, 26, 26, 28; ds41-patch-20261003 16, 20, 26, 32</title><rect x="414" y="1000" width="110" height="30" fill="transparent"/><text class="muted" x="512" y="1019" text-anchor="end">-11%</text></g>
<g><title>todo-cli, input tokens: ds41-write-edit-20261003 41974, 45601, 46717, 47356; ds41-patch-20261003 24034, 40441, 54808, 69194</title><rect x="524" y="1000" width="110" height="30" fill="transparent"/><text class="muted" x="622" y="1019" text-anchor="end">+3%</text></g>
<g><title>todo-cli, output tokens: ds41-write-edit-20261003 4105, 4699, 4794, 5408; ds41-patch-20261003 3312, 3965, 4998, 5877</title><rect x="634" y="1000" width="110" height="30" fill="transparent"/><text class="muted" x="732" y="1019" text-anchor="end">-6%</text></g>
<g><title>todo-cli, requests: ds41-write-edit-20261003 7, 8, 9, 9; ds41-patch-20261003 5, 7, 9, 10</title><rect x="744" y="1000" width="110" height="30" fill="transparent"/><text class="muted" x="842" y="1019" text-anchor="end">-6%</text></g>
<line class="grid" x1="24" y1="1030" x2="854" y2="1030"/><text x="24" y="1049">units-lf</text>
<g><title>units-lf, passed: ds41-write-edit-20261003 4/4; ds41-patch-20261003 4/4</title><rect x="194" y="1030" width="110" height="30" fill="transparent"/><text class="muted" x="292" y="1049" text-anchor="end">4/4</text></g>
<g><title>units-lf, cost: ds41-write-edit-20261003 $0.0013, $0.0014, $0.0015, $0.0016; ds41-patch-20261003 $0.0010, $0.0011, $0.0012, $0.0020</title><rect x="304" y="1030" width="110" height="30" fill="transparent"/><text class="muted" x="402" y="1049" text-anchor="end">-21%</text></g>
<g><title>units-lf, time: ds41-write-edit-20261003 12, 12, 13, 13; ds41-patch-20261003 10, 10, 12, 19</title><rect x="414" y="1030" width="110" height="30" fill="transparent"/><text class="muted" x="512" y="1049" text-anchor="end">-9%</text></g>
<g><title>units-lf, input tokens: ds41-write-edit-20261003 22278, 23480, 24214, 27371; ds41-patch-20261003 18283, 19239, 19380, 38280</title><rect x="524" y="1030" width="110" height="30" fill="transparent"/><text class="muted" x="622" y="1049" text-anchor="end">-19%</text></g>
<g><title>units-lf, output tokens: ds41-write-edit-20261003 1629, 1652, 1824, 1907; ds41-patch-20261003 1223, 1269, 1429, 2462</title><rect x="634" y="1030" width="110" height="30" fill="transparent"/><text class="muted" x="732" y="1049" text-anchor="end">-22%</text></g>
<g><title>units-lf, requests: ds41-write-edit-20261003 6, 6, 6, 7; ds41-patch-20261003 5, 5, 5, 8</title><rect x="744" y="1030" width="110" height="30" fill="transparent"/><text class="muted" x="842" y="1049" text-anchor="end">-17%</text></g>
</svg>
