<svg xmlns="http://www.w3.org/2000/svg" width="878" height="844" viewBox="0 0 878 844">
<style>
text { font-family: system-ui, -apple-system, 'Helvetica Neue', Arial, sans-serif; font-size: 13px; fill: #0b0b0b; font-variant-numeric: tabular-nums; }
.secondary { fill: #52514e; } .muted { fill: #898781; }
.title { font-size: 18px; font-weight: 600; }
.heading { font-size: 15px; font-weight: 600; } .strong { font-weight: 600; }
.surface { fill: #fcfcfb; } .grid { stroke: #e1e0d9; } .base { stroke: #c3c2b7; }
.good { fill: #0ca30c; } line.good { stroke: #0ca30c; }
.bad { fill: #d03b3b; } line.bad { stroke: #d03b3b; }
.neutral { fill: #898781; } line.neutral { stroke: #898781; }
.good-text { fill: #006300; } .bad-text { fill: #b02a2a; } .neutral-text { fill: #52514e; }
.tint { stroke: none; fill-opacity: 0.16; }
circle { stroke: #fcfcfb; stroke-width: 2px; }
@media (prefers-color-scheme: dark) {
text { fill: #ffffff; } .secondary, .neutral-text { fill: #c3c2b7; }
.good-text { fill: #0ca30c; } .bad-text { fill: #e06464; }
.surface { fill: #1a1a19; } .grid { stroke: #2c2c2a; } .base { stroke: #383835; }
.tint { fill-opacity: 0.28; } circle { stroke: #1a1a19; }
}
</style>
<rect class="surface" width="878" height="844"/>
<text class="title" x="24" y="40">Patch compared with Write/edit</text>
<text class="secondary" x="24" y="62">openai:gpt-5.6-luna. Passed: Write/edit 36/36, <tspan class="neutral-text strong">Patch 36/36</tspan>.</text>
<text class="heading" x="24" y="106">Across all tasks</text>
<text class="secondary" x="24" y="124">Each dot is the geometric mean over tasks of the candidate's median over the base's median, with a 90% bootstrap interval.</text>
<text class="secondary" x="24" y="142">Green is clearly lower, red is clearly higher, and gray is within the noise.</text>
<line class="grid" x1="226.9" y1="158" x2="226.9" y2="308"/><text class="muted" x="226.9" y="322" text-anchor="middle">-20%</text>
<line class="grid" x1="304.6" y1="158" x2="304.6" y2="308"/><text class="muted" x="304.6" y="322" text-anchor="middle">-10%</text>
<line class="base" x1="374.0" y1="158" x2="374.0" y2="308"/><text class="muted" x="374.0" y="322" text-anchor="middle">0%</text>
<line class="grid" x1="436.8" y1="158" x2="436.8" y2="308"/><text class="muted" x="436.8" y="322" text-anchor="middle">+10%</text>
<line class="grid" x1="521.1" y1="158" x2="521.1" y2="308"/><text class="muted" x="521.1" y="322" text-anchor="middle">+25%</text>
<text class="muted" x="194" y="340">← lower</text><text class="muted" x="554" y="340" text-anchor="end">higher →</text>
<text class="strong" x="24" y="177.0">Cost</text><text class="muted" x="578" y="177.0">Unavailable</text>
<g><title>Time: 0% (-12% to +13%)</title><rect x="24" y="188.0" width="830" height="30" fill="transparent"/><text class="strong" x="24" y="207.0">Time</text><line class="neutral" x1="290.4" y1="203.0" x2="453.0" y2="203.0" stroke-width="2" stroke-linecap="round"/><circle class="neutral" cx="376.4" cy="203.0" r="6"/><text x="578" y="207.0">0% (-12% to +13%)</text><text class="neutral-text strong" x="734" y="207.0">No clear change</text></g>
<g><title>Input tokens: +7% (-18% to +28%)</title><rect x="24" y="218.0" width="830" height="30" fill="transparent"/><text class="strong" x="24" y="237.0">Input tokens</text><line class="neutral" x1="243.9" y1="233.0" x2="537.6" y2="233.0" stroke-width="2" stroke-linecap="round"/><circle class="neutral" cx="419.2" cy="233.0" r="6"/><text x="578" y="237.0">+7% (-18% to +28%)</text><text class="neutral-text strong" x="734" y="237.0">No clear change</text></g>
<g><title>Output tokens: +8% (-7% to +21%)</title><rect x="24" y="248.0" width="830" height="30" fill="transparent"/><text class="strong" x="24" y="267.0">Output tokens</text><line class="neutral" x1="323.3" y1="263.0" x2="497.8" y2="263.0" stroke-width="2" stroke-linecap="round"/><circle class="neutral" cx="427.2" cy="263.0" r="6"/><text x="578" y="267.0">+8% (-7% to +21%)</text><text class="neutral-text strong" x="734" y="267.0">No clear change</text></g>
<g><title>Requests: -6% (-21% to +6%)</title><rect x="24" y="278.0" width="830" height="30" fill="transparent"/><text class="strong" x="24" y="297.0">Requests</text><line class="neutral" x1="215.5" y1="293.0" x2="414.8" y2="293.0" stroke-width="2" stroke-linecap="round"/><circle class="neutral" cx="333.6" cy="293.0" r="6"/><text x="578" y="297.0">-6% (-21% to +6%)</text><text class="neutral-text strong" x="734" y="297.0">No clear change</text></g>
<text class="heading" x="24" y="380">By task</text>
<text class="secondary" x="24" y="398">Each cell is the change in the task's median. A cell is colored only when every repetition of the candidate was lower (green)</text>
<text class="secondary" x="24" y="416">or higher (red) than every repetition of the base; hover a cell for the values.</text>
<text class="strong" x="292" y="450" text-anchor="end">Passed</text>
<text class="strong" x="402" y="450" text-anchor="end">Cost</text>
<text class="strong" x="512" y="450" text-anchor="end">Time</text>
<text class="strong" x="622" y="450" text-anchor="end">Input tokens</text>
<text class="strong" x="732" y="450" text-anchor="end">Output tokens</text>
<text class="strong" x="842" y="450" text-anchor="end">Requests</text>
<line class="grid" x1="24" y1="460" x2="854" y2="460"/><text x="24" y="479">coffee-site</text>
<g><title>coffee-site, passed: Write/edit 3/3; Patch 3/3</title><rect x="194" y="460" width="110" height="30" fill="transparent"/><text class="muted" x="292" y="479" text-anchor="end">3/3</text></g>
<g><title>coffee-site, cost: Write/edit unavailable, unavailable, unavailable; Patch unavailable, unavailable, unavailable</title><rect x="304" y="460" width="110" height="30" fill="transparent"/><text class="muted" x="402" y="479" text-anchor="end">-</text></g>
<g><title>coffee-site, time: Write/edit 106, 110, 115; Patch 109, 111, 112</title><rect x="414" y="460" width="110" height="30" fill="transparent"/><text class="muted" x="512" y="479" text-anchor="end">+1%</text></g>
<g><title>coffee-site, input tokens: Write/edit 37138, 38460, 38987; Patch 31257, 39447, 41023</title><rect x="524" y="460" width="110" height="30" fill="transparent"/><text class="muted" x="622" y="479" text-anchor="end">+3%</text></g>
<g><title>coffee-site, output tokens: Write/edit 4551, 4814, 4834; Patch 4640, 5046, 5394</title><rect x="634" y="460" width="110" height="30" fill="transparent"/><text class="muted" x="732" y="479" text-anchor="end">+5%</text></g>
<g><title>coffee-site, requests: Write/edit 8, 8, 8; Patch 6, 7, 7</title><rect x="744" y="460" width="110" height="30" fill="transparent"/><rect class="good tint" x="748" y="463" width="102" height="24" rx="4"/><text class="strong" x="842" y="479" text-anchor="end">-12%</text></g>
<line class="grid" x1="24" y1="490" x2="854" y2="490"/><text x="24" y="509">csv-stats</text>
<g><title>csv-stats, passed: Write/edit 3/3; Patch 3/3</title><rect x="194" y="490" width="110" height="30" fill="transparent"/><text class="muted" x="292" y="509" text-anchor="end">3/3</text></g>
<g><title>csv-stats, cost: Write/edit unavailable, unavailable, unavailable; Patch unavailable, unavailable, unavailable</title><rect x="304" y="490" width="110" height="30" fill="transparent"/><text class="muted" x="402" y="509" text-anchor="end">-</text></g>
<g><title>csv-stats, time: Write/edit 77, 78, 115; Patch 63, 87, 103</title><rect x="414" y="490" width="110" height="30" fill="transparent"/><text class="muted" x="512" y="509" text-anchor="end">+12%</text></g>
<g><title>csv-stats, input tokens: Write/edit 16658, 18484, 55716; Patch 13834, 17143, 36542</title><rect x="524" y="490" width="110" height="30" fill="transparent"/><text class="muted" x="622" y="509" text-anchor="end">-7%</text></g>
<g><title>csv-stats, output tokens: Write/edit 3016, 3674, 4825; Patch 2930, 4128, 4765</title><rect x="634" y="490" width="110" height="30" fill="transparent"/><text class="muted" x="732" y="509" text-anchor="end">+12%</text></g>
<g><title>csv-stats, requests: Write/edit 5, 5, 11; Patch 4, 4, 7</title><rect x="744" y="490" width="110" height="30" fill="transparent"/><text class="muted" x="842" y="509" text-anchor="end">-20%</text></g>
<line class="grid" x1="24" y1="520" x2="854" y2="520"/><text x="24" y="539">inih-quoted</text>
<g><title>inih-quoted, passed: Write/edit 3/3; Patch 3/3</title><rect x="194" y="520" width="110" height="30" fill="transparent"/><text class="muted" x="292" y="539" text-anchor="end">3/3</text></g>
<g><title>inih-quoted, cost: Write/edit unavailable, unavailable, unavailable; Patch unavailable, unavailable, unavailable</title><rect x="304" y="520" width="110" height="30" fill="transparent"/><text class="muted" x="402" y="539" text-anchor="end">-</text></g>
<g><title>inih-quoted, time: Write/edit 92, 101, 104; Patch 82, 83, 90</title><rect x="414" y="520" width="110" height="30" fill="transparent"/><rect class="good tint" x="418" y="523" width="102" height="24" rx="4"/><text class="strong" x="512" y="539" text-anchor="end">-18%</text></g>
<g><title>inih-quoted, input tokens: Write/edit 141654, 198362, 216130; Patch 127456, 129713, 170703</title><rect x="524" y="520" width="110" height="30" fill="transparent"/><text class="muted" x="622" y="539" text-anchor="end">-35%</text></g>
<g><title>inih-quoted, output tokens: Write/edit 2926, 3259, 3857; Patch 2546, 2560, 2778</title><rect x="634" y="520" width="110" height="30" fill="transparent"/><rect class="good tint" x="638" y="523" width="102" height="24" rx="4"/><text class="strong" x="732" y="539" text-anchor="end">-21%</text></g>
<g><title>inih-quoted, requests: Write/edit 15, 16, 17; Patch 12, 12, 13</title><rect x="744" y="520" width="110" height="30" fill="transparent"/><rect class="good tint" x="748" y="523" width="102" height="24" rx="4"/><text class="strong" x="842" y="539" text-anchor="end">-25%</text></g>
<line class="grid" x1="24" y1="550" x2="854" y2="550"/><text x="24" y="569">itoa-boundaries</text>
<g><title>itoa-boundaries, passed: Write/edit 3/3; Patch 3/3</title><rect x="194" y="550" width="110" height="30" fill="transparent"/><text class="muted" x="292" y="569" text-anchor="end">3/3</text></g>
<g><title>itoa-boundaries, cost: Write/edit unavailable, unavailable, unavailable; Patch unavailable, unavailable, unavailable</title><rect x="304" y="550" width="110" height="30" fill="transparent"/><text class="muted" x="402" y="569" text-anchor="end">-</text></g>
<g><title>itoa-boundaries, time: Write/edit 45, 65, 108; Patch 44, 49, 73</title><rect x="414" y="550" width="110" height="30" fill="transparent"/><text class="muted" x="512" y="569" text-anchor="end">-25%</text></g>
<g><title>itoa-boundaries, input tokens: Write/edit 35044, 92482, 149180; Patch 42153, 49684, 74555</title><rect x="524" y="550" width="110" height="30" fill="transparent"/><text class="muted" x="622" y="569" text-anchor="end">-46%</text></g>
<g><title>itoa-boundaries, output tokens: Write/edit 1033, 1926, 2502; Patch 922, 1480, 1886</title><rect x="634" y="550" width="110" height="30" fill="transparent"/><text class="muted" x="732" y="569" text-anchor="end">-23%</text></g>
<g><title>itoa-boundaries, requests: Write/edit 6, 11, 15; Patch 7, 7, 9</title><rect x="744" y="550" width="110" height="30" fill="transparent"/><text class="muted" x="842" y="569" text-anchor="end">-36%</text></g>
<line class="grid" x1="24" y1="580" x2="854" y2="580"/><text x="24" y="599">jsmn-rename</text>
<g><title>jsmn-rename, passed: Write/edit 3/3; Patch 3/3</title><rect x="194" y="580" width="110" height="30" fill="transparent"/><text class="muted" x="292" y="599" text-anchor="end">3/3</text></g>
<g><title>jsmn-rename, cost: Write/edit unavailable, unavailable, unavailable; Patch unavailable, unavailable, unavailable</title><rect x="304" y="580" width="110" height="30" fill="transparent"/><text class="muted" x="402" y="599" text-anchor="end">-</text></g>
<g><title>jsmn-rename, time: Write/edit 30, 31, 38; Patch 26, 28, 33</title><rect x="414" y="580" width="110" height="30" fill="transparent"/><text class="muted" x="512" y="599" text-anchor="end">-9%</text></g>
<g><title>jsmn-rename, input tokens: Write/edit 25407, 29071, 36573; Patch 27116, 28009, 40547</title><rect x="524" y="580" width="110" height="30" fill="transparent"/><text class="muted" x="622" y="599" text-anchor="end">-4%</text></g>
<g><title>jsmn-rename, output tokens: Write/edit 624, 654, 860; Patch 616, 662, 735</title><rect x="634" y="580" width="110" height="30" fill="transparent"/><text class="muted" x="732" y="599" text-anchor="end">+1%</text></g>
<g><title>jsmn-rename, requests: Write/edit 6, 7, 8; Patch 6, 6, 8</title><rect x="744" y="580" width="110" height="30" fill="transparent"/><text class="muted" x="842" y="599" text-anchor="end">-14%</text></g>
<line class="grid" x1="24" y1="610" x2="854" y2="610"/><text x="24" y="629">mini-redis-docs</text>
<g><title>mini-redis-docs, passed: Write/edit 3/3; Patch 3/3</title><rect x="194" y="610" width="110" height="30" fill="transparent"/><text class="muted" x="292" y="629" text-anchor="end">3/3</text></g>
<g><title>mini-redis-docs, cost: Write/edit unavailable, unavailable, unavailable; Patch unavailable, unavailable, unavailable</title><rect x="304" y="610" width="110" height="30" fill="transparent"/><text class="muted" x="402" y="629" text-anchor="end">-</text></g>
<g><title>mini-redis-docs, time: Write/edit 143, 146, 152; Patch 119, 168, 185</title><rect x="414" y="610" width="110" height="30" fill="transparent"/><text class="muted" x="512" y="629" text-anchor="end">+15%</text></g>
<g><title>mini-redis-docs, input tokens: Write/edit 302103, 315740, 411803; Patch 285345, 433082, 450281</title><rect x="524" y="610" width="110" height="30" fill="transparent"/><text class="muted" x="622" y="629" text-anchor="end">+37%</text></g>
<g><title>mini-redis-docs, output tokens: Write/edit 4273, 4468, 4556; Patch 3669, 5180, 6204</title><rect x="634" y="610" width="110" height="30" fill="transparent"/><text class="muted" x="732" y="629" text-anchor="end">+16%</text></g>
<g><title>mini-redis-docs, requests: Write/edit 14, 15, 19; Patch 14, 20, 20</title><rect x="744" y="610" width="110" height="30" fill="transparent"/><text class="muted" x="842" y="629" text-anchor="end">+33%</text></g>
<line class="grid" x1="24" y1="640" x2="854" y2="640"/><text x="24" y="659">pi-digit</text>
<g><title>pi-digit, passed: Write/edit 3/3; Patch 3/3</title><rect x="194" y="640" width="110" height="30" fill="transparent"/><text class="muted" x="292" y="659" text-anchor="end">3/3</text></g>
<g><title>pi-digit, cost: Write/edit unavailable, unavailable, unavailable; Patch unavailable, unavailable, unavailable</title><rect x="304" y="640" width="110" height="30" fill="transparent"/><text class="muted" x="402" y="659" text-anchor="end">-</text></g>
<g><title>pi-digit, time: Write/edit 52, 96, 252; Patch 173, 245, 266</title><rect x="414" y="640" width="110" height="30" fill="transparent"/><text class="muted" x="512" y="659" text-anchor="end">+156%</text></g>
<g><title>pi-digit, input tokens: Write/edit 21161, 27847, 244449; Patch 110119, 182151, 274498</title><rect x="524" y="640" width="110" height="30" fill="transparent"/><text class="muted" x="622" y="659" text-anchor="end">+554%</text></g>
<g><title>pi-digit, output tokens: Write/edit 1472, 3453, 9169; Patch 7613, 9477, 9913</title><rect x="634" y="640" width="110" height="30" fill="transparent"/><text class="muted" x="732" y="659" text-anchor="end">+174%</text></g>
<g><title>pi-digit, requests: Write/edit 7, 8, 34; Patch 16, 23, 34</title><rect x="744" y="640" width="110" height="30" fill="transparent"/><text class="muted" x="842" y="659" text-anchor="end">+188%</text></g>
<line class="grid" x1="24" y1="670" x2="854" y2="670"/><text x="24" y="689">sds-startswith</text>
<g><title>sds-startswith, passed: Write/edit 3/3; Patch 3/3</title><rect x="194" y="670" width="110" height="30" fill="transparent"/><text class="muted" x="292" y="689" text-anchor="end">3/3</text></g>
<g><title>sds-startswith, cost: Write/edit unavailable, unavailable, unavailable; Patch unavailable, unavailable, unavailable</title><rect x="304" y="670" width="110" height="30" fill="transparent"/><text class="muted" x="402" y="689" text-anchor="end">-</text></g>
<g><title>sds-startswith, time: Write/edit 52, 62, 62; Patch 43, 55, 61</title><rect x="414" y="670" width="110" height="30" fill="transparent"/><text class="muted" x="512" y="689" text-anchor="end">-11%</text></g>
<g><title>sds-startswith, input tokens: Write/edit 38010, 67360, 88227; Patch 41875, 57980, 71696</title><rect x="524" y="670" width="110" height="30" fill="transparent"/><text class="muted" x="622" y="689" text-anchor="end">-14%</text></g>
<g><title>sds-startswith, output tokens: Write/edit 1457, 1535, 2027; Patch 1281, 1689, 1814</title><rect x="634" y="670" width="110" height="30" fill="transparent"/><text class="muted" x="732" y="689" text-anchor="end">+10%</text></g>
<g><title>sds-startswith, requests: Write/edit 7, 10, 10; Patch 6, 9, 9</title><rect x="744" y="670" width="110" height="30" fill="transparent"/><text class="muted" x="842" y="689" text-anchor="end">-10%</text></g>
<line class="grid" x1="24" y1="700" x2="854" y2="700"/><text x="24" y="719">temp-cli</text>
<g><title>temp-cli, passed: Write/edit 3/3; Patch 3/3</title><rect x="194" y="700" width="110" height="30" fill="transparent"/><text class="muted" x="292" y="719" text-anchor="end">3/3</text></g>
<g><title>temp-cli, cost: Write/edit unavailable, unavailable, unavailable; Patch unavailable, unavailable, unavailable</title><rect x="304" y="700" width="110" height="30" fill="transparent"/><text class="muted" x="402" y="719" text-anchor="end">-</text></g>
<g><title>temp-cli, time: Write/edit 32, 44, 47; Patch 32, 37, 59</title><rect x="414" y="700" width="110" height="30" fill="transparent"/><text class="muted" x="512" y="719" text-anchor="end">-17%</text></g>
<g><title>temp-cli, input tokens: Write/edit 9330, 12589, 17284; Patch 11275, 15248, 22435</title><rect x="524" y="700" width="110" height="30" fill="transparent"/><text class="muted" x="622" y="719" text-anchor="end">+21%</text></g>
<g><title>temp-cli, output tokens: Write/edit 1189, 1273, 1588; Patch 1137, 1398, 1635</title><rect x="634" y="700" width="110" height="30" fill="transparent"/><text class="muted" x="732" y="719" text-anchor="end">+10%</text></g>
<g><title>temp-cli, requests: Write/edit 4, 5, 7; Patch 4, 5, 7</title><rect x="744" y="700" width="110" height="30" fill="transparent"/><text class="muted" x="842" y="719" text-anchor="end">0%</text></g>
<line class="grid" x1="24" y1="730" x2="854" y2="730"/><text x="24" y="749">tinyexpr-clamp</text>
<g><title>tinyexpr-clamp, passed: Write/edit 3/3; Patch 3/3</title><rect x="194" y="730" width="110" height="30" fill="transparent"/><text class="muted" x="292" y="749" text-anchor="end">3/3</text></g>
<g><title>tinyexpr-clamp, cost: Write/edit unavailable, unavailable, unavailable; Patch unavailable, unavailable, unavailable</title><rect x="304" y="730" width="110" height="30" fill="transparent"/><text class="muted" x="402" y="749" text-anchor="end">-</text></g>
<g><title>tinyexpr-clamp, time: Write/edit 51, 54, 59; Patch 43, 43, 64</title><rect x="414" y="730" width="110" height="30" fill="transparent"/><text class="muted" x="512" y="749" text-anchor="end">-20%</text></g>
<g><title>tinyexpr-clamp, input tokens: Write/edit 76463, 96220, 124678; Patch 46202, 101805, 131465</title><rect x="524" y="730" width="110" height="30" fill="transparent"/><text class="muted" x="622" y="749" text-anchor="end">+6%</text></g>
<g><title>tinyexpr-clamp, output tokens: Write/edit 1329, 1400, 1535; Patch 1161, 1228, 2040</title><rect x="634" y="730" width="110" height="30" fill="transparent"/><text class="muted" x="732" y="749" text-anchor="end">-12%</text></g>
<g><title>tinyexpr-clamp, requests: Write/edit 9, 11, 13; Patch 6, 10, 11</title><rect x="744" y="730" width="110" height="30" fill="transparent"/><text class="muted" x="842" y="749" text-anchor="end">-9%</text></g>
<line class="grid" x1="24" y1="760" x2="854" y2="760"/><text x="24" y="779">tinyexpr-precedence</text>
<g><title>tinyexpr-precedence, passed: Write/edit 3/3; Patch 3/3</title><rect x="194" y="760" width="110" height="30" fill="transparent"/><text class="muted" x="292" y="779" text-anchor="end">3/3</text></g>
<g><title>tinyexpr-precedence, cost: Write/edit unavailable, unavailable, unavailable; Patch unavailable, unavailable, unavailable</title><rect x="304" y="760" width="110" height="30" fill="transparent"/><text class="muted" x="402" y="779" text-anchor="end">-</text></g>
<g><title>tinyexpr-precedence, time: Write/edit 71, 92, 94; Patch 58, 66, 66</title><rect x="414" y="760" width="110" height="30" fill="transparent"/><rect class="good tint" x="418" y="763" width="102" height="24" rx="4"/><text class="strong" x="512" y="779" text-anchor="end">-28%</text></g>
<g><title>tinyexpr-precedence, input tokens: Write/edit 263103, 271178, 322710; Patch 186411, 241522, 279756</title><rect x="524" y="760" width="110" height="30" fill="transparent"/><text class="muted" x="622" y="779" text-anchor="end">-11%</text></g>
<g><title>tinyexpr-precedence, output tokens: Write/edit 1795, 1859, 2386; Patch 1439, 1622, 2032</title><rect x="634" y="760" width="110" height="30" fill="transparent"/><text class="muted" x="732" y="779" text-anchor="end">-13%</text></g>
<g><title>tinyexpr-precedence, requests: Write/edit 14, 15, 18; Patch 11, 12, 14</title><rect x="744" y="760" width="110" height="30" fill="transparent"/><text class="muted" x="842" y="779" text-anchor="end">-20%</text></g>
<line class="grid" x1="24" y1="790" x2="854" y2="790"/><text x="24" y="809">todo-cli</text>
<g><title>todo-cli, passed: Write/edit 3/3; Patch 3/3</title><rect x="194" y="790" width="110" height="30" fill="transparent"/><text class="muted" x="292" y="809" text-anchor="end">3/3</text></g>
<g><title>todo-cli, cost: Write/edit unavailable, unavailable, unavailable; Patch unavailable, unavailable, unavailable</title><rect x="304" y="790" width="110" height="30" fill="transparent"/><text class="muted" x="402" y="809" text-anchor="end">-</text></g>
<g><title>todo-cli, time: Write/edit 46, 46, 55; Patch 59, 60, 62</title><rect x="414" y="790" width="110" height="30" fill="transparent"/><rect class="bad tint" x="418" y="793" width="102" height="24" rx="4"/><text class="strong" x="512" y="809" text-anchor="end">+30%</text></g>
<g><title>todo-cli, input tokens: Write/edit 10867, 16804, 20056; Patch 13051, 13484, 25642</title><rect x="524" y="790" width="110" height="30" fill="transparent"/><text class="muted" x="622" y="809" text-anchor="end">-20%</text></g>
<g><title>todo-cli, output tokens: Write/edit 1868, 1920, 1922; Patch 2203, 2389, 2499</title><rect x="634" y="790" width="110" height="30" fill="transparent"/><rect class="bad tint" x="638" y="793" width="102" height="24" rx="4"/><text class="strong" x="732" y="809" text-anchor="end">+24%</text></g>
<g><title>todo-cli, requests: Write/edit 4, 6, 7; Patch 4, 4, 6</title><rect x="744" y="790" width="110" height="30" fill="transparent"/><text class="muted" x="842" y="809" text-anchor="end">-33%</text></g>
</svg>
