<svg xmlns="http://www.w3.org/2000/svg" width="878" height="514" viewBox="0 0 878 514">
<style>
text { font-family: system-ui, -apple-system, 'Helvetica Neue', Arial, sans-serif; font-size: 13px; fill: #0b0b0b; font-variant-numeric: tabular-nums; }
.secondary { fill: #52514e; } .muted { fill: #898781; }
.title { font-size: 18px; font-weight: 600; }
.heading { font-size: 15px; font-weight: 600; } .strong { font-weight: 600; }
.surface { fill: #fcfcfb; } .grid { stroke: #e1e0d9; } .base { stroke: #c3c2b7; }
.good { fill: #0ca30c; } line.good { stroke: #0ca30c; }
.bad { fill: #d03b3b; } line.bad { stroke: #d03b3b; }
.neutral { fill: #898781; } line.neutral { stroke: #898781; }
.good-text { fill: #006300; } .bad-text { fill: #b02a2a; } .neutral-text { fill: #52514e; }
.tint { stroke: none; fill-opacity: 0.16; }
circle { stroke: #fcfcfb; stroke-width: 2px; }
@media (prefers-color-scheme: dark) {
text { fill: #ffffff; } .secondary, .neutral-text { fill: #c3c2b7; }
.good-text { fill: #0ca30c; } .bad-text { fill: #e06464; }
.surface { fill: #1a1a19; } .grid { stroke: #2c2c2a; } .base { stroke: #383835; }
.tint { fill-opacity: 0.28; } circle { stroke: #1a1a19; }
}
</style>
<rect class="surface" width="878" height="514"/>
<text class="title" x="24" y="40">Patch compared with Write/edit</text>
<text class="secondary" x="24" y="62">openrouter:stealth/space-bunny-alpha. Passed: Write/edit 1/1, <tspan class="neutral-text strong">Patch 1/1</tspan>.</text>
<text class="heading" x="24" y="106">Across all tasks</text>
<text class="secondary" x="24" y="124">Each dot is the geometric mean over tasks of the candidate's median over the base's median, with a 90% bootstrap interval.</text>
<text class="secondary" x="24" y="142">Green is clearly lower, red is clearly higher, and gray is within the noise.</text>
<line class="grid" x1="256.1" y1="158" x2="256.1" y2="308"/><text class="muted" x="256.1" y="322" text-anchor="middle">-33%</text>
<line class="grid" x1="308.3" y1="158" x2="308.3" y2="308"/><text class="muted" x="308.3" y="322" text-anchor="middle">-20%</text>
<line class="base" x1="374.0" y1="158" x2="374.0" y2="308"/><text class="muted" x="374.0" y="322" text-anchor="middle">0%</text>
<line class="grid" x1="439.7" y1="158" x2="439.7" y2="308"/><text class="muted" x="439.7" y="322" text-anchor="middle">+25%</text>
<line class="grid" x1="493.3" y1="158" x2="493.3" y2="308"/><text class="muted" x="493.3" y="322" text-anchor="middle">+50%</text>
<text class="muted" x="194" y="340">← lower</text><text class="muted" x="554" y="340" text-anchor="end">higher →</text>
<text class="strong" x="24" y="177.0">Cost</text><text class="muted" x="578" y="177.0">No ratio: both costs $0</text>
<g><title>Time: +36% (+36% to +36%)</title><rect x="24" y="188.0" width="830" height="30" fill="transparent"/><text class="strong" x="24" y="207.0">Time</text><line class="bad" x1="463.8" y1="203.0" x2="463.8" y2="203.0" stroke-width="2" stroke-linecap="round"/><circle class="bad" cx="463.8" cy="203.0" r="6"/><text x="578" y="207.0">+36% (+36% to +36%)</text><text class="bad-text strong" x="734" y="207.0">Higher</text></g>
<g><title>Input tokens: +39% (+39% to +39%)</title><rect x="24" y="218.0" width="830" height="30" fill="transparent"/><text class="strong" x="24" y="237.0">Input tokens</text><line class="bad" x1="470.8" y1="233.0" x2="470.8" y2="233.0" stroke-width="2" stroke-linecap="round"/><circle class="bad" cx="470.8" cy="233.0" r="6"/><text x="578" y="237.0">+39% (+39% to +39%)</text><text class="bad-text strong" x="734" y="237.0">Higher</text></g>
<g><title>Output tokens: +74% (+74% to +74%)</title><rect x="24" y="248.0" width="830" height="30" fill="transparent"/><text class="strong" x="24" y="267.0">Output tokens</text><line class="bad" x1="537.6" y1="263.0" x2="537.6" y2="263.0" stroke-width="2" stroke-linecap="round"/><circle class="bad" cx="537.6" cy="263.0" r="6"/><text x="578" y="267.0">+74% (+74% to +74%)</text><text class="bad-text strong" x="734" y="267.0">Higher</text></g>
<g><title>Requests: -8% (-8% to -8%)</title><rect x="24" y="278.0" width="830" height="30" fill="transparent"/><text class="strong" x="24" y="297.0">Requests</text><line class="good" x1="350.4" y1="293.0" x2="350.4" y2="293.0" stroke-width="2" stroke-linecap="round"/><circle class="good" cx="350.4" cy="293.0" r="6"/><text x="578" y="297.0">-8% (-8% to -8%)</text><text class="good-text strong" x="734" y="297.0">Lower</text></g>
<text class="heading" x="24" y="380">By task</text>
<text class="secondary" x="24" y="398">Each cell is the change in the task's median. A cell is colored only when every repetition of the candidate was lower (green)</text>
<text class="secondary" x="24" y="416">or higher (red) than every repetition of the base; hover a cell for the values.</text>
<text class="strong" x="292" y="450" text-anchor="end">Passed</text>
<text class="strong" x="402" y="450" text-anchor="end">Cost</text>
<text class="strong" x="512" y="450" text-anchor="end">Time</text>
<text class="strong" x="622" y="450" text-anchor="end">Input tokens</text>
<text class="strong" x="732" y="450" text-anchor="end">Output tokens</text>
<text class="strong" x="842" y="450" text-anchor="end">Requests</text>
<line class="grid" x1="24" y1="460" x2="854" y2="460"/><text x="24" y="479">todo-cli</text>
<g><title>todo-cli, passed: Write/edit 1/1; Patch 1/1</title><rect x="194" y="460" width="110" height="30" fill="transparent"/><text class="muted" x="292" y="479" text-anchor="end">1/1</text></g>
<g><title>todo-cli, cost: Write/edit $0.0000; Patch $0.0000</title><rect x="304" y="460" width="110" height="30" fill="transparent"/><text class="muted" x="402" y="479" text-anchor="end">-</text></g>
<g><title>todo-cli, time: Write/edit 49; Patch 66</title><rect x="414" y="460" width="110" height="30" fill="transparent"/><rect class="bad tint" x="418" y="463" width="102" height="24" rx="4"/><text class="strong" x="512" y="479" text-anchor="end">+36%</text></g>
<g><title>todo-cli, input tokens: Write/edit 89326; Patch 124098</title><rect x="524" y="460" width="110" height="30" fill="transparent"/><rect class="bad tint" x="528" y="463" width="102" height="24" rx="4"/><text class="strong" x="622" y="479" text-anchor="end">+39%</text></g>
<g><title>todo-cli, output tokens: Write/edit 5984; Patch 10434</title><rect x="634" y="460" width="110" height="30" fill="transparent"/><rect class="bad tint" x="638" y="463" width="102" height="24" rx="4"/><text class="strong" x="732" y="479" text-anchor="end">+74%</text></g>
<g><title>todo-cli, requests: Write/edit 13; Patch 12</title><rect x="744" y="460" width="110" height="30" fill="transparent"/><rect class="good tint" x="748" y="463" width="102" height="24" rx="4"/><text class="strong" x="842" y="479" text-anchor="end">-8%</text></g>
</svg>
